<svg width="66" height="62" viewBox="0 0 66 62" fill="none" xmlns="http://www.w3.org/2000/svg">
<path fill-rule="evenodd" clip-rule="evenodd" d="M41.966 0.0999992C42.266 -0.100001 42.766 2.26498e-06 42.866 0.400002L45.466 11.1C45.466 11.1 51.866 15.8 53.766 19.1C56.966 24.6 57.066 29.1 57.066 29.1C57.066 29.1 64.166 31.2 65.366 36.9C66.566 42.6 62.166 53.4 43.366 57.1C24.566 60.8 9.46603 55.7 2.36603 44.3C-4.73397 32.9 6.46603 19.3 5.86603 20.1L3.76602 2.20001C3.66602 1.80001 4.16603 1.50001 4.56603 1.70001L16.666 9.6C16.666 9.6 21.166 7.90001 25.866 7.70001C28.666 7.50001 31.066 7.7 33.366 8.1L41.966 0.0999992Z" fill="#FFAB19"/>
<path d="M22.908 44C24.444 42.512 25.908 41.048 27.3 39.608C28.692 38.168 29.94 36.776 31.044 35.432C32.172 34.088 33.06 32.792 33.708 31.544C34.356 30.272 34.68 29.048 34.68 27.872C34.68 27.08 34.548 26.408 34.284 25.856C34.02 25.28 33.672 24.812 33.24 24.452C32.832 24.092 32.364 23.828 31.836 23.66C31.308 23.468 30.768 23.372 30.216 23.372C29.424 23.372 28.752 23.504 28.2 23.768C27.648 24.008 27.192 24.332 26.832 24.74C26.496 25.148 26.244 25.58 26.076 26.036C25.932 26.492 25.86 26.948 25.86 27.404C25.86 28.196 25.98 28.916 26.22 29.564C26.46 30.188 26.808 30.74 27.264 31.22L25.104 33.128C24.552 32.768 24.072 32.264 23.664 31.616C23.28 30.968 22.98 30.272 22.764 29.528C22.572 28.76 22.476 28.076 22.476 27.476C22.476 26.18 22.788 24.968 23.412 23.84C24.06 22.688 24.996 21.764 26.22 21.068C27.468 20.372 28.98 20.024 30.756 20.024C32.268 20.024 33.588 20.372 34.716 21.068C35.844 21.764 36.72 22.688 37.344 23.84C37.968 24.968 38.28 26.216 38.28 27.584C38.28 28.784 38.04 29.96 37.56 31.112C37.08 32.264 36.432 33.404 35.616 34.532C34.824 35.66 33.936 36.776 32.952 37.88C31.992 38.96 31.032 40.052 30.072 41.156L28.56 40.652H39.072V44H22.908Z" fill="white"/>
<path d="M17.416 20.464C16.968 20.464 16.616 20.5493 16.36 20.72C16.1253 20.8907 15.9547 21.2107 15.848 21.68C15.7627 22.1493 15.72 22.8533 15.72 23.792V27.536C15.72 28.5387 15.6027 29.36 15.368 30C15.1547 30.64 14.888 31.1413 14.568 31.504C14.248 31.8453 13.928 32.112 13.608 32.304C13.9067 32.496 14.216 32.7733 14.536 33.136C14.856 33.4773 15.1333 33.936 15.368 34.512C15.6027 35.088 15.72 35.8133 15.72 36.688V40.88C15.72 41.7973 15.7627 42.4907 15.848 42.96C15.9547 43.4507 16.1253 43.7813 16.36 43.952C16.616 44.1227 16.968 44.208 17.416 44.208H18.824V46.832H16.776C16.2427 46.832 15.7307 46.8107 15.24 46.768C14.7493 46.7467 14.3013 46.6187 13.896 46.384C13.512 46.1493 13.2027 45.7333 12.968 45.136C12.7333 44.56 12.616 43.7067 12.616 42.576V37.52C12.616 36.9013 12.5307 36.2933 12.36 35.696C12.1893 35.0987 11.912 34.5973 11.528 34.192C11.1653 33.7867 10.6747 33.584 10.056 33.584V30.96C10.6747 30.9387 11.1653 30.736 11.528 30.352C11.912 29.9467 12.1893 29.4453 12.36 28.848C12.5307 28.2293 12.616 27.6107 12.616 26.992V21.68C12.616 20.6773 12.7333 19.9093 12.968 19.376C13.2027 18.8427 13.512 18.4693 13.896 18.256C14.3013 18.0427 14.7493 17.9253 15.24 17.904C15.752 17.8613 16.264 17.84 16.776 17.84H18.824V20.464H17.416ZM44.0193 44.208C44.4673 44.208 44.8086 44.1227 45.0433 43.952C45.2779 43.7813 45.4379 43.4507 45.5233 42.96C45.6299 42.4907 45.6833 41.7973 45.6833 40.88V36.688C45.6833 35.792 45.8006 35.056 46.0353 34.48C46.2913 33.904 46.5793 33.4453 46.8993 33.104C47.2406 32.7627 47.5393 32.5173 47.7953 32.368C47.5393 32.1547 47.2406 31.8773 46.8993 31.536C46.5579 31.1947 46.2699 30.736 46.0353 30.16C45.8006 29.5627 45.6833 28.8267 45.6833 27.952V23.76C45.6833 22.8213 45.6299 22.1173 45.5233 21.648C45.4379 21.1787 45.2779 20.8693 45.0433 20.72C44.8086 20.5493 44.4673 20.464 44.0193 20.464H42.5793V17.84H44.5953C45.1073 17.84 45.6086 17.8507 46.0993 17.872C46.5899 17.8933 47.0379 18.0107 47.4433 18.224C47.8486 18.4373 48.1686 18.8107 48.4033 19.344C48.6593 19.8773 48.7873 20.6453 48.7873 21.648V26.704C48.7873 27.1307 48.8193 27.6 48.8833 28.112C48.9686 28.6027 49.0966 29.072 49.2673 29.52C49.4593 29.968 49.7259 30.3413 50.0673 30.64C50.4086 30.9173 50.8353 31.0667 51.3473 31.088V33.712C50.8353 33.712 50.4086 33.8613 50.0673 34.16C49.7259 34.4587 49.4593 34.832 49.2673 35.28C49.0966 35.7067 48.9686 36.176 48.8833 36.688C48.8193 37.1787 48.7873 37.648 48.7873 38.096V42.992C48.7873 43.9947 48.6699 44.7627 48.4353 45.296C48.2006 45.8293 47.8806 46.2027 47.4753 46.416C47.0699 46.6293 46.6219 46.7467 46.1313 46.768C45.6406 46.8107 45.1286 46.832 44.5953 46.832H42.5793V44.208H44.0193Z" fill="white"/>
</svg>
