<svg width="80" height="37" viewBox="0 0 80 37" fill="none" xmlns="http://www.w3.org/2000/svg">
<path fill-rule="evenodd" clip-rule="evenodd" d="M28.286 5.04117C28.4095 4.95883 28.6155 5 28.6567 5.16469L29.7276 9.57017C29.7276 9.57017 32.3638 11.5053 33.1464 12.864C34.4645 15.1285 34.5057 16.9812 34.5057 16.9812C34.5057 16.9812 37.4302 17.8459 37.9245 20.1927C38.4188 22.5396 36.6064 26.9862 28.8626 28.5096C21.1188 30.033 14.8991 27.9332 11.9746 23.2395C9.05006 18.5458 13.6634 12.9463 13.4162 13.2757L12.5512 5.9058C12.5101 5.74111 12.716 5.61759 12.8808 5.69994L17.8648 8.95258C17.8648 8.95258 19.7184 8.25264 21.6543 8.1703C22.8077 8.08795 23.7962 8.1703 24.7436 8.33499L28.286 5.04117Z" fill="#FFAB19"/>
<path d="M9.468 3.772C8.964 3.772 8.568 3.868 8.28 4.06C8.016 4.252 7.824 4.612 7.704 5.14C7.608 5.668 7.56 6.46 7.56 7.516V11.728C7.56 12.856 7.428 13.78 7.164 14.5C6.924 15.22 6.624 15.784 6.264 16.192C5.904 16.576 5.544 16.876 5.184 17.092C5.52 17.308 5.868 17.62 6.228 18.028C6.588 18.412 6.9 18.928 7.164 19.576C7.428 20.224 7.56 21.04 7.56 22.024V26.74C7.56 27.772 7.608 28.552 7.704 29.08C7.824 29.632 8.016 30.004 8.28 30.196C8.568 30.388 8.964 30.484 9.468 30.484H11.052V33.436H8.748C8.148 33.436 7.572 33.412 7.02 33.364C6.468 33.34 5.964 33.196 5.508 32.932C5.076 32.668 4.728 32.2 4.464 31.528C4.2 30.88 4.068 29.92 4.068 28.648V22.96C4.068 22.264 3.972 21.58 3.78 20.908C3.588 20.236 3.276 19.672 2.844 19.216C2.436 18.76 1.884 18.532 1.188 18.532V15.58C1.884 15.556 2.436 15.328 2.844 14.896C3.276 14.44 3.588 13.876 3.78 13.204C3.972 12.508 4.068 11.812 4.068 11.116V5.14C4.068 4.012 4.2 3.148 4.464 2.548C4.728 1.948 5.076 1.528 5.508 1.288C5.964 1.048 6.468 0.915999 7.02 0.891999C7.596 0.843998 8.172 0.819998 8.748 0.819998H11.052V3.772H9.468ZM48.7713 28C50.3073 26.512 51.7713 25.048 53.1633 23.608C54.5553 22.168 55.8033 20.776 56.9073 19.432C58.0353 18.088 58.9233 16.792 59.5713 15.544C60.2193 14.272 60.5433 13.048 60.5433 11.872C60.5433 11.08 60.4113 10.408 60.1473 9.856C59.8833 9.28 59.5353 8.812 59.1033 8.452C58.6953 8.092 58.2273 7.828 57.6993 7.66C57.1713 7.468 56.6313 7.372 56.0793 7.372C55.2873 7.372 54.6153 7.504 54.0633 7.768C53.5113 8.008 53.0553 8.332 52.6953 8.74C52.3593 9.148 52.1073 9.58 51.9393 10.036C51.7953 10.492 51.7233 10.948 51.7233 11.404C51.7233 12.196 51.8433 12.916 52.0833 13.564C52.3233 14.188 52.6713 14.74 53.1273 15.22L50.9673 17.128C50.4153 16.768 49.9353 16.264 49.5273 15.616C49.1433 14.968 48.8433 14.272 48.6273 13.528C48.4353 12.76 48.3393 12.076 48.3393 11.476C48.3393 10.18 48.6513 8.968 49.2753 7.84C49.9233 6.688 50.8593 5.764 52.0833 5.068C53.3313 4.372 54.8433 4.024 56.6193 4.024C58.1313 4.024 59.4513 4.372 60.5793 5.068C61.7073 5.764 62.5833 6.688 63.2073 7.84C63.8313 8.968 64.1433 10.216 64.1433 11.584C64.1433 12.784 63.9033 13.96 63.4233 15.112C62.9433 16.264 62.2953 17.404 61.4793 18.532C60.6873 19.66 59.7993 20.776 58.8153 21.88C57.8553 22.96 56.8953 24.052 55.9353 25.156L54.4233 24.652H64.9353V28H48.7713ZM70.4045 30.484C70.9085 30.484 71.2925 30.388 71.5565 30.196C71.8205 30.004 72.0005 29.632 72.0965 29.08C72.2165 28.552 72.2765 27.772 72.2765 26.74V22.024C72.2765 21.016 72.4085 20.188 72.6725 19.54C72.9605 18.892 73.2845 18.376 73.6445 17.992C74.0285 17.608 74.3645 17.332 74.6525 17.164C74.3645 16.924 74.0285 16.612 73.6445 16.228C73.2605 15.844 72.9365 15.328 72.6725 14.68C72.4085 14.008 72.2765 13.18 72.2765 12.196V7.48C72.2765 6.424 72.2165 5.632 72.0965 5.104C72.0005 4.576 71.8205 4.228 71.5565 4.06C71.2925 3.868 70.9085 3.772 70.4045 3.772H68.7845V0.819998H71.0525C71.6285 0.819998 72.1925 0.831999 72.7445 0.856C73.2965 0.879999 73.8005 1.012 74.2565 1.252C74.7125 1.492 75.0725 1.912 75.3365 2.512C75.6245 3.112 75.7685 3.976 75.7685 5.104V10.792C75.7685 11.272 75.8045 11.8 75.8765 12.376C75.9725 12.928 76.1165 13.456 76.3085 13.96C76.5245 14.464 76.8245 14.884 77.2085 15.22C77.5925 15.532 78.0725 15.7 78.6485 15.724V18.676C78.0725 18.676 77.5925 18.844 77.2085 19.18C76.8245 19.516 76.5245 19.936 76.3085 20.44C76.1165 20.92 75.9725 21.448 75.8765 22.024C75.8045 22.576 75.7685 23.104 75.7685 23.608V29.116C75.7685 30.244 75.6365 31.108 75.3725 31.708C75.1085 32.308 74.7485 32.728 74.2925 32.968C73.8365 33.208 73.3325 33.34 72.7805 33.364C72.2285 33.412 71.6525 33.436 71.0525 33.436H68.7845V30.484H70.4045Z" fill="white"/>
<path d="M42.94 24.868C42.412 26.116 41.884 27.352 41.356 28.576C40.852 29.824 40.336 31.084 39.808 32.356H37.108C37.588 31.084 38.056 29.824 38.512 28.576C38.968 27.352 39.436 26.116 39.916 24.868H42.94Z" fill="white"/>
</svg>
